<svg width="321" height="150" viewBox="0 0 321 150" fill="none" xmlns="http://www.w3.org/2000/svg">
<path d="M8.3739 24.0741C8.3739 14.8693 15.8722 7.40741 25.1217 7.40741H296.809C306.058 7.40741 313.557 14.8693 313.557 24.0741V124.074C313.557 133.279 306.058 140.741 296.809 140.741H25.1217C15.8722 140.741 8.3739 133.279 8.3739 124.074V24.0741Z" fill="url(#paint0_linear_1_7)"/>
<path d="M248.976 84.6481C248.462 86.2704 247.948 87.7481 247.435 89.0815C246.921 90.4148 246.374 91.637 245.793 92.7481C245.213 93.8815 244.588 94.9148 243.918 95.8481C243.248 96.8037 242.511 97.7037 241.707 98.5481C240.68 99.6148 239.619 100.426 238.525 100.981C237.431 101.559 236.337 101.848 235.242 101.848C234.684 101.848 234.126 101.781 233.568 101.648C233.032 101.537 232.529 101.37 232.06 101.148C231.569 100.948 231.145 100.704 230.787 100.415C230.408 100.148 230.14 99.8592 229.984 99.5481C229.984 99.2815 230.14 99.0481 230.452 98.8481C230.72 99.0926 230.944 99.2815 231.122 99.4148C231.301 99.5481 231.48 99.6592 231.658 99.7481C231.815 99.837 231.993 99.8926 232.194 99.9148C232.373 99.937 232.585 99.9481 232.831 99.9481C234.103 99.9481 235.343 99.5704 236.549 98.8148C237.777 98.0815 238.927 97.0259 239.999 95.6481C241.093 94.2926 242.087 92.637 242.98 90.6815C243.873 88.7481 244.632 86.5815 245.258 84.1815C244.967 84.6259 244.61 85.1704 244.186 85.8148C243.761 86.4592 243.292 87.1037 242.779 87.7481C242.265 88.3704 241.729 88.937 241.171 89.4481C240.635 89.9592 240.11 90.3037 239.597 90.4815C239.239 90.4592 238.86 90.3815 238.458 90.2481C238.078 90.137 237.71 89.9704 237.353 89.7481C237.018 89.5259 236.716 89.2592 236.448 88.9481C236.18 88.637 236.002 88.2815 235.912 87.8815C235.912 87.237 235.935 86.7259 235.979 86.3481C236.024 85.9481 236.102 85.5148 236.214 85.0481C236.415 84.2037 236.705 83.2481 237.085 82.1815C237.487 81.1148 237.944 80.0704 238.458 79.0481C238.994 78.0037 239.574 77.037 240.2 76.1481C240.847 75.237 241.517 74.5259 242.209 74.0148C242.388 74.0148 242.611 74.037 242.879 74.0815C243.147 74.1037 243.426 74.1592 243.717 74.2481C244.007 74.337 244.286 74.4481 244.554 74.5815C244.822 74.6926 245.057 74.8481 245.258 75.0481C245.012 75.2704 244.476 76.0148 243.65 77.2815C242.824 78.5481 241.908 80.3704 240.903 82.7481C240.791 82.9926 240.657 83.3481 240.501 83.8148C240.345 84.2815 240.189 84.7704 240.032 85.2815C239.898 85.7926 239.775 86.2926 239.664 86.7815C239.552 87.2704 239.496 87.6592 239.496 87.9481C239.496 88.1259 239.519 88.2592 239.563 88.3481C239.63 88.437 239.686 88.5037 239.731 88.5481C240.133 88.4815 240.669 88.1592 241.339 87.5815C242.008 86.9815 242.768 86.0592 243.616 84.8148C244.152 84.0148 244.643 83.2259 245.09 82.4481C245.537 81.6481 245.972 80.8481 246.396 80.0481C246.843 79.2481 247.301 78.4259 247.77 77.5815C248.239 76.737 248.741 75.8704 249.277 74.9815C249.567 74.9815 249.88 75.0148 250.215 75.0815C250.55 75.1481 250.874 75.237 251.186 75.3481C251.499 75.437 251.767 75.5481 251.99 75.6815C252.236 75.7926 252.414 75.9148 252.526 76.0481C251.834 77.5148 251.186 78.9481 250.583 80.3481C249.98 81.7481 249.444 83.1815 248.976 84.6481Z" fill="white"/>
<path d="M222.068 89.1482C222.179 88.5037 222.369 87.6593 222.637 86.6148C222.928 85.5482 223.262 84.4259 223.642 83.2482C224.022 82.0482 224.424 80.8482 224.848 79.6482C225.272 78.4482 225.685 77.3704 226.087 76.4148C226.378 75.7259 226.634 75.1926 226.858 74.8148C227.081 74.4148 227.327 74.0815 227.595 73.8148C227.907 73.8593 228.231 73.937 228.566 74.0482C228.901 74.1593 229.225 74.2926 229.537 74.4482C229.85 74.6037 230.129 74.7704 230.375 74.9482C230.62 75.1037 230.81 75.2593 230.944 75.4148C230.341 76.1259 229.805 76.937 229.336 77.8482C228.89 78.7593 228.432 79.9259 227.963 81.3482C229.169 80.2815 230.23 79.2593 231.145 78.2815C232.083 77.3037 232.954 76.2148 233.758 75.0148C233.892 74.9037 234.126 74.8482 234.461 74.8482C234.774 74.8482 235.075 74.9037 235.366 75.0148C235.656 75.1037 235.857 75.237 235.969 75.4148C235.567 76.4815 235.366 77.537 235.366 78.5815C235.366 79.5593 235.511 80.2926 235.801 80.7815C235.779 80.9148 235.622 81.1704 235.332 81.5482C235.064 81.9259 234.763 82.2815 234.428 82.6148C233.825 82.3037 233.289 81.8815 232.82 81.3482C232.351 80.7926 232.005 80.1926 231.782 79.5482C230.732 80.2815 229.839 81.0037 229.102 81.7148C228.365 82.4037 227.729 83.1815 227.193 84.0482C226.679 84.8926 226.232 85.8704 225.853 86.9815C225.496 88.0926 225.149 89.4148 224.814 90.9482C224.613 90.9259 224.368 90.8482 224.078 90.7148C223.81 90.6037 223.53 90.4593 223.24 90.2815C222.972 90.1037 222.727 89.9148 222.503 89.7148C222.28 89.5148 222.135 89.3259 222.068 89.1482Z" fill="white"/>
<path d="M221.321 76.0148C221.232 77.3926 220.986 78.5815 220.584 79.5815C220.182 80.5593 219.601 81.4259 218.842 82.1815C218.105 82.9148 217.201 83.5815 216.129 84.1815C215.057 84.7815 213.807 85.3593 212.378 85.9148C212.378 86.0481 212.366 86.1926 212.344 86.3481C212.344 86.4815 212.344 86.6259 212.344 86.7815C212.344 87.0704 212.366 87.3704 212.411 87.6815C212.456 87.9926 212.534 88.2815 212.646 88.5481C212.757 88.8148 212.913 89.037 213.114 89.2148C213.315 89.3704 213.572 89.4481 213.885 89.4481C214.488 89.4481 215.08 89.3148 215.66 89.0481C216.241 88.7815 216.788 88.4593 217.301 88.0815C217.837 87.6815 218.329 87.2593 218.775 86.8148C219.244 86.3481 219.657 85.9259 220.015 85.5481C220.238 85.7481 220.428 85.937 220.584 86.1148C219.579 87.4481 218.474 88.5593 217.268 89.4481C216.084 90.3148 214.957 90.8704 213.885 91.1148C212.344 90.937 211.138 90.3815 210.267 89.4481C209.419 88.4926 208.995 87.3481 208.995 86.0148C208.995 85.1037 209.117 84.1815 209.363 83.2481C209.631 82.2926 209.988 81.3815 210.435 80.5148C210.904 79.6259 211.44 78.7926 212.043 78.0148C212.668 77.237 213.327 76.5593 214.019 75.9815C214.733 75.4037 215.459 74.9481 216.196 74.6148C216.955 74.2815 217.703 74.1148 218.44 74.1148C219.467 74.2481 220.428 74.8815 221.321 76.0148ZM219.01 77.1148C218.407 77.2037 217.782 77.4481 217.134 77.8481C216.486 78.2481 215.872 78.7815 215.292 79.4481C214.733 80.1148 214.22 80.8926 213.751 81.7815C213.282 82.6704 212.913 83.6259 212.646 84.6481C214.432 83.7593 215.917 82.6704 217.1 81.3815C218.284 80.0704 218.92 78.6481 219.01 77.1148Z" fill="white"/>
<path d="M201.511 87.6815C201.511 86.7037 201.745 85.337 202.214 83.5815C202.683 81.8037 203.342 79.737 204.191 77.3815C205.575 73.6259 206.87 70.5037 208.076 68.0148C209.304 65.5037 210.499 63.5481 211.66 62.1481C211.928 62.1926 212.252 62.3037 212.631 62.4815C213.033 62.6592 213.424 62.8592 213.804 63.0815C214.183 63.2815 214.518 63.4926 214.809 63.7148C215.121 63.937 215.322 64.1148 215.412 64.2481C213.67 66.2926 212.14 68.4926 210.823 70.8481C209.505 73.2037 208.299 75.9037 207.205 78.9481C206.267 81.5704 205.553 83.937 205.061 86.0481C204.57 88.137 204.325 89.8815 204.325 91.2815C204.325 91.6592 204.325 91.8926 204.325 91.9815C204.325 92.0704 204.336 92.1592 204.358 92.2481C204.045 92.2037 203.777 92.1259 203.554 92.0148C203.331 91.9037 203.186 91.7704 203.119 91.6148C203.074 91.5037 202.951 91.337 202.75 91.1148C202.549 90.9148 202.371 90.7592 202.214 90.6481C202.013 90.5148 201.846 90.1704 201.712 89.6148C201.578 89.037 201.511 88.3926 201.511 87.6815Z" fill="white"/>
<path d="M193.595 87.6815C193.595 86.7037 193.829 85.337 194.298 83.5815C194.767 81.8037 195.426 79.737 196.275 77.3815C197.659 73.6259 198.954 70.5037 200.16 68.0148C201.388 65.5037 202.583 63.5481 203.744 62.1481C204.012 62.1926 204.336 62.3037 204.715 62.4815C205.117 62.6592 205.508 62.8592 205.888 63.0815C206.267 63.2815 206.602 63.4926 206.893 63.7148C207.205 63.937 207.406 64.1148 207.496 64.2481C205.754 66.2926 204.224 68.4926 202.907 70.8481C201.589 73.2037 200.383 75.9037 199.289 78.9481C198.351 81.5704 197.637 83.937 197.145 86.0481C196.654 88.137 196.409 89.8815 196.409 91.2815C196.409 91.6592 196.409 91.8926 196.409 91.9815C196.409 92.0704 196.42 92.1592 196.442 92.2481C196.129 92.2037 195.861 92.1259 195.638 92.0148C195.415 91.9037 195.27 91.7704 195.203 91.6148C195.158 91.5037 195.035 91.337 194.834 91.1148C194.633 90.9148 194.455 90.7592 194.298 90.6481C194.097 90.5148 193.93 90.1704 193.796 89.6148C193.662 89.037 193.595 88.3926 193.595 87.6815Z" fill="white"/>
<path d="M189.451 76.3481C189.674 76.3481 189.931 76.3926 190.221 76.4815C190.534 76.5481 190.813 76.6481 191.058 76.7815C191.304 76.8926 191.505 77.0148 191.661 77.1481C191.84 77.2815 191.929 77.4037 191.929 77.5148C191.483 78.4481 191.07 79.3926 190.69 80.3481C190.31 81.2815 189.987 82.1815 189.719 83.0481C189.451 83.9148 189.238 84.7259 189.082 85.4815C188.948 86.237 188.881 86.8926 188.881 87.4481C188.881 88.0703 188.948 88.5926 189.082 89.0148C189.216 89.4148 189.439 89.7037 189.752 89.8815C189.484 90.0592 189.138 90.2037 188.714 90.3148C188.289 90.4259 187.91 90.4815 187.575 90.4815C186.369 90.4815 185.766 89.6592 185.766 88.0148C185.766 86.7481 186.19 85.0148 187.039 82.8148C186.592 83.837 186.079 84.8037 185.498 85.7148C184.918 86.6037 184.326 87.3926 183.723 88.0815C183.12 88.7703 182.506 89.337 181.881 89.7815C181.278 90.2037 180.719 90.4592 180.206 90.5481C179.38 90.5037 178.71 90.1148 178.196 89.3815C177.682 88.6259 177.426 87.6704 177.426 86.5148C177.426 85.2704 177.694 83.9592 178.23 82.5815C178.765 81.2037 179.447 79.9259 180.273 78.7481C181.121 77.5703 182.037 76.5926 183.019 75.8148C184.002 75.0148 184.951 74.5926 185.867 74.5481C186.09 74.6148 186.336 74.7481 186.603 74.9481C186.894 75.1481 187.162 75.3815 187.407 75.6481C187.675 75.9148 187.899 76.1926 188.077 76.4815C188.256 76.7481 188.356 76.9815 188.379 77.1815C187.486 77.3148 186.559 77.7481 185.599 78.4815C184.661 79.2148 183.801 80.1037 183.019 81.1481C182.26 82.1703 181.635 83.2703 181.144 84.4481C180.652 85.6259 180.407 86.7259 180.407 87.7481C180.407 88.1704 180.563 88.437 180.876 88.5481C181.523 88.4148 182.271 87.8703 183.12 86.9148C183.968 85.937 184.996 84.437 186.202 82.4148C186.425 82.0148 186.67 81.5703 186.938 81.0815C187.229 80.5926 187.519 80.0815 187.809 79.5481C188.1 79.0148 188.379 78.4815 188.647 77.9481C188.937 77.3926 189.205 76.8592 189.451 76.3481Z" fill="white"/>
<path d="M174.8 79.2148C175.38 79.2148 175.838 79.4148 176.173 79.8148C176.508 80.2148 176.676 80.7704 176.676 81.4815C176.676 81.6593 176.664 81.8481 176.642 82.0481C176.62 82.2259 176.586 82.3815 176.542 82.5148C176.073 82.4037 175.559 82.337 175.001 82.3148C174.867 83.2926 174.51 84.3259 173.929 85.4148C173.348 86.4815 172.645 87.4926 171.819 88.4481C170.993 89.3815 170.088 90.2037 169.106 90.9148C168.123 91.6259 167.152 92.1037 166.192 92.3481C163.199 92.2815 161.011 91.5037 159.626 90.0148C158.264 88.5481 157.583 86.2481 157.583 83.1148C157.583 80.8259 158.007 78.6148 158.856 76.4815C159.705 74.3259 160.832 72.4148 162.239 70.7481C163.646 69.0815 165.254 67.7481 167.062 66.7481C168.894 65.7259 170.792 65.2148 172.757 65.2148C174.297 65.2148 175.492 65.537 176.341 66.1815C177.212 66.8259 177.647 67.737 177.647 68.9148C177.647 69.6926 177.457 70.4148 177.078 71.0815C176.72 71.7481 176.117 72.4704 175.269 73.2481C174.755 73.0926 174.309 72.8259 173.929 72.4481C173.549 72.0481 173.315 71.5926 173.226 71.0815C173.985 70.5259 174.521 70.0148 174.833 69.5481C175.146 69.0815 175.302 68.5259 175.302 67.8815C175.302 66.8593 174.688 66.3481 173.46 66.3481C172.455 66.3481 171.372 66.7259 170.211 67.4815C169.072 68.2148 167.922 69.2815 166.761 70.6815C165.108 72.6593 163.903 74.7037 163.143 76.8148C162.384 78.9037 162.005 81.2593 162.005 83.8815C162.005 84.8593 162.105 85.7481 162.306 86.5481C162.507 87.3481 162.775 88.0481 163.11 88.6481C163.445 89.2481 163.836 89.7259 164.282 90.0815C164.751 90.437 165.254 90.637 165.79 90.6815C166.504 90.5259 167.219 90.1704 167.933 89.6148C168.648 89.037 169.295 88.3704 169.876 87.6148C170.479 86.837 170.981 86.0148 171.383 85.1481C171.808 84.2593 172.064 83.4148 172.154 82.6148C171.528 82.7481 170.926 82.8815 170.345 83.0148C169.787 83.1259 169.251 83.1815 168.737 83.1815C168.067 83.1815 167.476 83.0148 166.962 82.6815C166.471 82.3481 166.136 81.8926 165.957 81.3148C166.359 81.0926 166.94 80.8593 167.699 80.6148C168.48 80.3704 169.307 80.1481 170.177 79.9481C171.048 79.7259 171.897 79.5481 172.723 79.4148C173.572 79.2815 174.264 79.2148 174.8 79.2148Z" fill="white"/>
<path d="M146.577 76.0148C146.488 77.3926 146.242 78.5815 145.84 79.5815C145.438 80.5593 144.858 81.4259 144.099 82.1815C143.362 82.9148 142.457 83.5815 141.385 84.1815C140.314 84.7815 139.063 85.3593 137.634 85.9148C137.634 86.0481 137.623 86.1926 137.6 86.3481C137.6 86.4815 137.6 86.6259 137.6 86.7815C137.6 87.0704 137.623 87.3704 137.667 87.6815C137.712 87.9926 137.79 88.2815 137.902 88.5481C138.013 88.8148 138.17 89.037 138.371 89.2148C138.572 89.3704 138.829 89.4481 139.141 89.4481C139.744 89.4481 140.336 89.3148 140.916 89.0481C141.497 88.7815 142.044 88.4593 142.558 88.0815C143.094 87.6815 143.585 87.2593 144.032 86.8148C144.5 86.3481 144.914 85.9259 145.271 85.5481C145.494 85.7481 145.684 85.937 145.84 86.1148C144.835 87.4481 143.73 88.5593 142.524 89.4481C141.341 90.3148 140.213 90.8704 139.141 91.1148C137.6 90.937 136.395 90.3815 135.524 89.4481C134.675 88.4926 134.251 87.3481 134.251 86.0148C134.251 85.1037 134.374 84.1815 134.619 83.2481C134.887 82.2926 135.244 81.3815 135.691 80.5148C136.16 79.6259 136.696 78.7926 137.299 78.0148C137.924 77.237 138.583 76.5593 139.275 75.9815C139.99 75.4037 140.715 74.9481 141.452 74.6148C142.212 74.2815 142.96 74.1148 143.697 74.1148C144.724 74.2481 145.684 74.8815 146.577 76.0148ZM144.266 77.1148C143.663 77.2037 143.038 77.4481 142.39 77.8481C141.743 78.2481 141.129 78.7815 140.548 79.4481C139.99 80.1148 139.476 80.8926 139.007 81.7815C138.538 82.6704 138.17 83.6259 137.902 84.6481C139.688 83.7593 141.173 82.6704 142.357 81.3815C143.54 80.0704 144.177 78.6481 144.266 77.1148Z" fill="white"/>
<path d="M112.74 99.7482C112.74 99.6148 112.785 99.4926 112.874 99.3815C112.963 99.2704 113.064 99.1593 113.175 99.0482C113.443 99.2926 113.678 99.4815 113.879 99.6148C114.058 99.7482 114.236 99.8593 114.415 99.9482C114.571 100.037 114.739 100.093 114.917 100.115C115.096 100.137 115.308 100.148 115.554 100.148C116.715 100.148 117.82 99.837 118.87 99.2148C119.919 98.6148 120.902 97.737 121.817 96.5815C122.755 95.4259 123.604 94.0148 124.363 92.3482C125.122 90.6815 125.792 88.7926 126.373 86.6815C126.105 86.9482 125.77 87.2482 125.368 87.5815C124.988 87.8926 124.586 88.1926 124.162 88.4815C123.738 88.7704 123.314 89.037 122.889 89.2815C122.487 89.5259 122.141 89.7037 121.851 89.8148C121.471 89.7482 121.114 89.5926 120.779 89.3482C120.466 89.0815 120.187 88.7593 119.942 88.3815C119.696 88.0037 119.506 87.5815 119.372 87.1148C119.238 86.6259 119.171 86.1148 119.171 85.5815C119.171 84.7148 119.328 83.8259 119.64 82.9148C119.975 82.0037 120.411 81.1148 120.946 80.2482C121.482 79.3593 122.108 78.5259 122.822 77.7482C123.559 76.9704 124.33 76.2926 125.133 75.7148C125.96 75.137 126.786 74.6815 127.612 74.3482C128.461 73.9926 129.287 73.8148 130.091 73.8148C130.872 73.8148 131.453 73.9815 131.833 74.3148C132.235 74.6259 132.525 75.1704 132.703 75.9482C132.458 75.8148 132.145 75.7482 131.766 75.7482C131.23 75.7482 130.604 75.9593 129.89 76.3815C129.198 76.8037 128.483 77.3593 127.746 78.0482C127.032 78.7148 126.317 79.4926 125.602 80.3815C124.888 81.2482 124.251 82.137 123.693 83.0482C123.157 83.9593 122.711 84.8482 122.353 85.7148C122.018 86.5815 121.851 87.3593 121.851 88.0482C121.851 88.2037 121.862 88.3037 121.884 88.3482C121.907 88.3704 121.94 88.3815 121.985 88.3815C122.186 88.3815 122.454 88.2704 122.789 88.0482C123.146 87.8259 123.537 87.5482 123.961 87.2148C124.408 86.8593 124.865 86.4593 125.334 86.0148C125.803 85.5482 126.25 85.0815 126.674 84.6148C127.634 83.5482 128.505 82.3593 129.287 81.0482C130.091 79.7148 130.727 78.4259 131.196 77.1815C131.799 77.2259 132.335 77.3259 132.804 77.4815C133.273 77.637 133.597 77.8037 133.775 77.9815C133.016 79.7148 132.402 81.1704 131.933 82.3482C131.486 83.5259 131.096 84.5704 130.761 85.4815C130.158 87.0815 129.588 88.537 129.052 89.8482C128.539 91.1815 128.003 92.4037 127.445 93.5148C126.909 94.6482 126.317 95.6926 125.669 96.6482C125.044 97.6259 124.33 98.5593 123.526 99.4482C123.146 99.8704 122.711 100.237 122.219 100.548C121.75 100.881 121.259 101.159 120.746 101.381C120.254 101.604 119.763 101.77 119.272 101.881C118.803 101.993 118.367 102.048 117.965 102.048C117.429 102.048 116.882 101.981 116.324 101.848C115.766 101.737 115.252 101.57 114.783 101.348C114.292 101.148 113.868 100.904 113.51 100.615C113.153 100.348 112.896 100.059 112.74 99.7482Z" fill="white"/>
<path d="M115.525 76.3481C115.748 76.3481 116.005 76.3926 116.295 76.4815C116.608 76.5481 116.887 76.6481 117.132 76.7815C117.378 76.8926 117.579 77.0148 117.735 77.1481C117.914 77.2815 118.003 77.4037 118.003 77.5148C117.557 78.4481 117.144 79.3926 116.764 80.3481C116.384 81.2815 116.061 82.1815 115.793 83.0481C115.525 83.9148 115.312 84.7259 115.156 85.4815C115.022 86.237 114.955 86.8926 114.955 87.4481C114.955 88.0703 115.022 88.5926 115.156 89.0148C115.29 89.4148 115.513 89.7037 115.826 89.8815C115.558 90.0592 115.212 90.2037 114.788 90.3148C114.363 90.4259 113.984 90.4815 113.649 90.4815C112.443 90.4815 111.84 89.6592 111.84 88.0148C111.84 86.7481 112.264 85.0148 113.113 82.8148C112.666 83.837 112.153 84.8037 111.572 85.7148C110.992 86.6037 110.4 87.3926 109.797 88.0815C109.194 88.7703 108.58 89.337 107.955 89.7815C107.352 90.2037 106.793 90.4592 106.28 90.5481C105.454 90.5037 104.784 90.1148 104.27 89.3815C103.756 88.6259 103.5 87.6704 103.5 86.5148C103.5 85.2704 103.768 83.9592 104.304 82.5815C104.84 81.2037 105.521 79.9259 106.347 78.7481C107.195 77.5703 108.111 76.5926 109.093 75.8148C110.076 75.0148 111.025 74.5926 111.941 74.5481C112.164 74.6148 112.41 74.7481 112.678 74.9481C112.968 75.1481 113.236 75.3815 113.481 75.6481C113.749 75.9148 113.973 76.1926 114.151 76.4815C114.33 76.7481 114.43 76.9815 114.453 77.1815C113.56 77.3148 112.633 77.7481 111.673 78.4815C110.735 79.2148 109.875 80.1037 109.093 81.1481C108.334 82.1703 107.709 83.2703 107.218 84.4481C106.726 85.6259 106.481 86.7259 106.481 87.7481C106.481 88.1704 106.637 88.437 106.95 88.5481C107.597 88.4148 108.345 87.8703 109.194 86.9148C110.043 85.937 111.07 84.437 112.276 82.4148C112.499 82.0148 112.744 81.5703 113.012 81.0815C113.303 80.5926 113.593 80.0815 113.883 79.5481C114.174 79.0148 114.453 78.4815 114.721 77.9481C115.011 77.3926 115.279 76.8592 115.525 76.3481Z" fill="white"/>
<path d="M97.7167 79.5815C97.3594 79.6037 96.924 79.837 96.4104 80.2815C95.8968 80.7037 95.3385 81.2592 94.7356 81.9481C94.155 82.6148 93.5409 83.3592 92.8934 84.1815C92.2681 85.0037 91.654 85.8259 91.0511 86.6481C90.4705 87.4481 89.9234 88.2037 89.4098 88.9148C88.8962 89.6259 88.4608 90.1926 88.1035 90.6148C87.6122 90.4148 87.1879 90.1259 86.8306 89.7481C86.4734 89.3481 86.2166 88.8592 86.0602 88.2815C86.1719 87.5926 86.3282 86.8815 86.5292 86.1481C86.7302 85.3926 86.987 84.6148 87.2996 83.8148C87.6345 83.0148 88.0365 82.1815 88.5054 81.3148C88.9967 80.4259 89.5885 79.4926 90.2807 78.5148C89.9457 78.537 89.488 78.7815 88.9074 79.2481C88.3268 79.6926 87.7015 80.2815 87.0316 81.0148C86.3617 81.7259 85.6695 82.537 84.9549 83.4481C84.2403 84.337 83.5704 85.2148 82.9451 86.0815C82.1189 87.237 81.4267 88.2481 80.8684 89.1148C80.3325 89.9815 79.9417 90.4926 79.6961 90.6481C79.1155 90.2259 78.7135 89.7703 78.4902 89.2815C78.2669 88.7926 78.0994 88.2481 77.9878 87.6481C78.0101 87.1148 78.0883 86.4481 78.2223 85.6481C78.3786 84.8481 78.5907 84.0259 78.8587 83.1815C79.3723 81.5592 80.031 79.9481 80.8349 78.3481C81.6611 76.7481 82.4539 75.2815 83.2131 73.9481C83.8384 74.0815 84.3966 74.2926 84.8879 74.5815C85.4015 74.8703 85.9374 75.2926 86.4957 75.8481C86.2724 76.537 85.9263 77.2703 85.4573 78.0481C84.9884 78.8037 84.4971 79.6037 83.9835 80.4481C83.4699 81.2926 83.001 82.1592 82.5767 83.0481C82.1524 83.937 81.8733 84.837 81.7393 85.7481C82.3646 84.8592 83.1015 83.837 83.95 82.6815C84.8209 81.5259 85.703 80.437 86.5962 79.4148C87.5117 78.3926 88.4161 77.5259 89.3093 76.8148C90.2025 76.1037 91.0064 75.7481 91.721 75.7481C91.989 75.7481 92.2793 75.7926 92.5919 75.8815C92.9045 75.9703 93.1948 76.0815 93.4628 76.2148C93.7307 76.3481 93.9541 76.4815 94.1327 76.6148C94.3113 76.7259 94.4118 76.8148 94.4342 76.8815C94.3225 77.3259 94.0545 77.937 93.6303 78.7148C93.2283 79.4703 92.7929 80.2703 92.3239 81.1148C91.855 81.9592 91.4195 82.7815 91.0176 83.5815C90.6157 84.3592 90.3812 84.9815 90.3142 85.4481C91.4084 83.9592 92.4356 82.6148 93.3958 81.4148C94.356 80.1926 95.2604 79.1481 96.1089 78.2815C96.9575 77.4148 97.7391 76.7481 98.4536 76.2815C99.1905 75.8148 99.8828 75.5815 100.53 75.5815C100.977 75.5815 101.39 75.7037 101.77 75.9481C102.172 76.1703 102.451 76.5037 102.607 76.9481C102.406 77.6148 102.071 78.4148 101.602 79.3481C101.156 80.2815 100.698 81.2703 100.229 82.3148C99.76 83.337 99.3357 84.3481 98.9561 85.3481C98.5988 86.3481 98.4201 87.2481 98.4201 88.0481C98.4201 88.5148 98.4871 88.8259 98.6211 88.9815C98.7551 89.1148 98.9449 89.1815 99.1905 89.1815C99.4585 89.1815 99.7041 89.137 99.9274 89.0481C100.173 88.937 100.352 88.8815 100.463 88.8815C100.597 88.9703 100.676 89.0815 100.698 89.2148C100.72 89.3481 100.731 89.4703 100.731 89.5815C100.285 89.937 99.827 90.2259 99.358 90.4481C98.8891 90.6926 98.3643 90.8148 97.7837 90.8148C97.2478 90.8148 96.8012 90.7259 96.4439 90.5481C96.1089 90.3703 95.8298 90.1259 95.6065 89.8148C95.3832 89.5037 95.2269 89.1481 95.1376 88.7481C95.0482 88.3481 95.0036 87.9148 95.0036 87.4481C95.0036 86.6926 95.1041 85.9481 95.305 85.2148C95.506 84.4592 95.7405 83.7481 96.0085 83.0815C96.2987 82.3926 96.6002 81.7592 96.9128 81.1815C97.2255 80.5815 97.4934 80.0481 97.7167 79.5815Z" fill="white"/>
<path d="M69.5184 87.9148C69.5184 87.1148 69.6412 86.0815 69.8868 84.8148C70.1548 83.5259 70.4897 82.1481 70.8917 80.6815C71.316 79.1926 71.7961 77.6815 72.332 76.1481C72.8679 74.5926 73.415 73.137 73.9733 71.7815C74.5316 70.4259 75.0786 69.237 75.6146 68.2148C76.1505 67.1926 76.6306 66.4592 77.0549 66.0148C77.2782 66.037 77.5685 66.1259 77.9258 66.2815C78.3054 66.4148 78.685 66.5815 79.0646 66.7815C79.4442 66.9815 79.7904 67.2037 80.103 67.4481C80.4156 67.6704 80.6166 67.8815 80.7059 68.0815C80.0583 68.6592 79.4108 69.537 78.7632 70.7148C78.1379 71.8704 77.5238 73.1926 76.9209 74.6815C76.3403 76.1704 75.7932 77.7481 75.2796 79.4148C74.766 81.0592 74.3194 82.6592 73.9398 84.2148C73.5602 85.7704 73.2587 87.2148 73.0354 88.5481C72.8344 89.8815 72.734 90.9592 72.734 91.7815C72.734 92.1592 72.7674 92.3926 72.8344 92.4815C72.3432 92.4592 71.9859 92.3704 71.7626 92.2148C71.5393 92.0815 71.3606 91.9259 71.2266 91.7481C71.115 91.5926 71.0033 91.4259 70.8917 91.2481C70.8024 91.0926 70.6572 90.9704 70.4562 90.8815C70.2999 90.8148 70.166 90.6592 70.0543 90.4148C69.9426 90.1704 69.8422 89.9037 69.7528 89.6148C69.6858 89.3037 69.63 88.9926 69.5854 88.6815C69.5407 88.3704 69.5184 88.1148 69.5184 87.9148Z" fill="white"/>
<defs>
<linearGradient id="paint0_linear_1_7" x1="8.3739" y1="74.0741" x2="308.904" y2="74.0741" gradientUnits="userSpaceOnUse">
<stop stop-color="#C995F2"/>
<stop offset="0.495356" stop-color="#9E4ADF" stop-opacity="0.721198"/>
<stop offset="1" stop-color="#8D4DBF" stop-opacity="0.47"/>
</linearGradient>
</defs>
</svg>
